<svg width="20" height="20" viewBox="0 0 20 20" fill="none" xmlns="http://www.w3.org/2000/svg">
<path d="M9.79669 11.877L2.90357 18.7682C2.81537 18.8595 2.70986 18.9324 2.5932 18.9825C2.47654 19.0326 2.35107 19.059 2.22411 19.0601C2.09715 19.0612 1.97124 19.037 1.85373 18.9889C1.73622 18.9409 1.62946 18.8699 1.53968 18.7801C1.4499 18.6903 1.3789 18.5835 1.33082 18.466C1.28274 18.3485 1.25855 18.2226 1.25965 18.0956C1.26076 17.9687 1.28714 17.8432 1.33725 17.7266C1.38736 17.6099 1.4602 17.5044 1.55153 17.4162L8.55461 10.4131C8.5001 10.1095 8.51982 9.79723 8.61211 9.50291C8.70441 9.20859 8.86652 8.94096 9.08463 8.72285C9.30273 8.50475 9.57036 8.34263 9.86468 8.25034C10.159 8.15805 10.4713 8.13832 10.7749 8.19284L17.7808 1.18785C17.9612 1.01367 18.2027 0.917291 18.4534 0.91947C18.7041 0.921648 18.9439 1.02221 19.1212 1.19949C19.2985 1.37678 19.3991 1.6166 19.4012 1.86731C19.4034 2.11802 19.307 2.35955 19.1329 2.53989L12.2407 9.43397C12.3624 9.77491 12.3849 10.1434 12.3054 10.4966C12.226 10.8498 12.0479 11.1732 11.7919 11.4292C11.5359 11.6852 11.2125 11.8632 10.8593 11.9427C10.5061 12.0221 10.1376 11.9987 9.79669 11.877ZM17.0063 6.01848C18.8049 7.05498 20.0001 8.48734 20.0001 10.0746C20.0001 13.2434 15.2594 15.805 10.4383 15.8117C9.45722 15.8116 8.47883 15.7091 7.51907 15.5057L9.29852 13.7272C9.96479 13.9354 10.6753 13.9573 11.3531 13.7905C12.031 13.6238 12.6502 13.2747 13.1438 12.7811C13.6374 12.2875 13.9865 11.6682 14.1533 10.9904C14.3201 10.3126 14.2982 9.60206 14.09 8.93579L17.0063 6.01848ZM13.0286 4.58803L11.275 6.34167C10.6458 6.20043 9.99112 6.22056 9.37182 6.40018C8.75252 6.5798 8.18868 6.91307 7.73272 7.36903C7.27676 7.82499 6.94348 8.38883 6.76386 9.00814C6.58424 9.62744 6.56412 10.2821 6.70536 10.9113L3.61975 13.995C1.96078 12.9699 0.876465 11.5902 0.876465 10.0746C0.876465 6.90582 5.64208 4.32126 10.4383 4.33751C11.3122 4.34038 12.1852 4.42739 13.0286 4.58803Z" fill="#4256D0"/>
</svg>
