<svg width="20" height="13" viewBox="0 0 20 13" fill="none" xmlns="http://www.w3.org/2000/svg">
<path d="M10.4383 12.1564C5.61722 12.1631 0.876465 9.58809 0.876465 6.4193C0.876465 3.25051 5.64208 0.66595 10.4383 0.682205C15.2345 0.69846 20.0001 3.25051 20.0001 6.4193C20.0001 9.58809 15.2594 12.1497 10.4383 12.1564ZM10.4383 10.244C11.4527 10.244 12.4255 9.84107 13.1428 9.1238C13.8601 8.40652 14.263 7.43368 14.263 6.4193C14.263 5.40492 13.8601 4.43209 13.1428 3.71481C12.4255 2.99753 11.4527 2.59457 10.4383 2.59457C9.42391 2.59457 8.45108 2.99753 7.7338 3.71481C7.01652 4.43209 6.61356 5.40492 6.61356 6.4193C6.61356 7.43368 7.01652 8.40652 7.7338 9.1238C8.45108 9.84107 9.42391 10.244 10.4383 10.244ZM10.4383 8.33167C9.9311 8.33167 9.44468 8.13019 9.08605 7.77155C8.72741 7.41291 8.52593 6.92649 8.52593 6.4193C8.52593 5.91211 8.72741 5.42569 9.08605 5.06706C9.44468 4.70842 9.9311 4.50694 10.4383 4.50694C10.9455 4.50694 11.4319 4.70842 11.7905 5.06706C12.1492 5.42569 12.3507 5.91211 12.3507 6.4193C12.3507 6.92649 12.1492 7.41291 11.7905 7.77155C11.4319 8.13019 10.9455 8.33167 10.4383 8.33167Z" fill="#4256D0"/>
</svg>
