<svg width="204" height="52" viewBox="0 0 204 52" fill="none" xmlns="http://www.w3.org/2000/svg">
<path d="M59.3976 19.3498V16.2714L62.8911 16.7799V17.4492H69.6637V16.2714L59.3976 14.6518V9.98052H73.1572V13.233L69.6637 12.6976V11.8811H62.8911V13.1527L73.1572 14.7722V19.3498H59.3976Z" fill="#4256D0"/>
<path d="M74.2277 13.9959V12.2559H78.1762L81.7231 16.6729L84.6008 12.2559H88.1478L81.857 21.6252H77.7077V19.8852H79.4477L80.0501 19.0151L75.8339 13.9959H74.2277Z" fill="#4256D0"/>
<path d="M89.0821 19.3498V16.6729L92.4282 17.0074V17.6097H97.5814V17.0074L89.0821 15.8028V12.2559H100.927V14.9328L97.5814 14.5981V13.9959H92.4282V14.5313L100.927 15.7359V19.3498H89.0821Z" fill="#4256D0"/>
<path d="M102.137 13.996V12.2559H103.81V9.98052H107.157V12.2559H110.436V13.996H107.157V17.2082L107.96 17.6098H113.113V19.3498H107.09L103.81 17.7437V13.996H102.137Z" fill="#4256D0"/>
<path d="M112.829 13.9959V12.2559H126.348V15.8028L117.849 17.0074V17.6097H123.002V17.0074L126.348 16.6729V19.3498H114.503V13.9959H112.829ZM117.849 15.2808L123.002 14.5981V13.9959H117.849V15.2808Z" fill="#4256D0"/>
<path d="M128.752 19.3498V12.2559H131.148L131.831 12.9251L132.5 12.2559H135.913L137.386 12.9921L138.858 12.2559H142.739L146.018 13.8621V19.3498H142.673V14.3975L141.87 13.9959H139.728L139.059 14.3305V19.3498H135.712V14.3305L135.043 13.9959H132.098V19.3498H128.752Z" fill="#4256D0"/>
<path d="M58.1929 31.1958V29.2953H74.0941V32.7486L70.6006 32.2667V31.1958H63.6807V36.7639H70.6006V35.6931L74.0941 35.2113V38.6646H60.1873V31.1958H58.1929Z" fill="#4256D0"/>
<path d="M76.3636 38.6645V31.5706H88.4768V38.6645H76.3636ZM79.7098 36.9245H85.1306V33.3107H79.7098V36.9245Z" fill="#4256D0"/>
<path d="M89.6812 33.3107V31.5706H93.7501L94.4327 32.2398L95.102 31.5706H101.861V34.5152L98.515 34.1807V33.3107H94.7005V38.6645H91.3542V33.3107H89.6812Z" fill="#4256D0"/>
<path d="M102.269 33.3107V31.5706H106.351L107.02 32.2398L107.689 31.5706H115.921V37.8615L107.287 38.9322V40.9399H103.942V33.3107H102.269ZM107.287 37.2591L112.575 36.5899V33.3107H107.287V37.2591Z" fill="#4256D0"/>
<path d="M118.334 38.6645V31.5706H130.448V38.6645H118.334ZM121.681 36.9245H127.102V33.3107H121.681V36.9245Z" fill="#4256D0"/>
<path d="M131.652 33.3107V31.5706H135.721L136.404 32.2398L137.073 31.5706H143.832V34.5152L140.486 34.1807V33.3107H136.671V38.6645H133.326V33.3107H131.652Z" fill="#4256D0"/>
<path d="M145.444 38.6645V35.1175L154.077 34.0468V33.3107H148.79V33.913L145.444 34.2476V31.5706H157.423V38.6645H155.027L154.345 37.9953L153.675 38.6645H145.444ZM148.79 36.9245H154.077V35.6664L148.79 36.3222V36.9245Z" fill="#4256D0"/>
<path d="M158.631 33.3107V31.5707H160.304V29.2953H163.65V31.5707H166.929V33.3107H163.65V36.523L164.453 36.9245H169.606V38.6646H163.583L160.304 37.0584V33.3107H158.631Z" fill="#4256D0"/>
<path d="M169.323 33.3106V31.5705H174.342V38.6644H170.996V33.3106H169.323ZM170.996 30.6335V28.7597H174.342V30.6335H170.996Z" fill="#4256D0"/>
<path d="M176.749 38.6645V31.5706H188.863V38.6645H176.749ZM180.096 36.9245H185.516V33.3107H180.096V36.9245Z" fill="#4256D0"/>
<path d="M191.271 38.6645V31.5706H193.667L194.35 32.2398L195.019 31.5706H199.971L203.25 33.1768V38.6645H199.904V33.7121L199.101 33.3107H194.617V38.6645H191.271Z" fill="#4256D0"/>
<path fill-rule="evenodd" clip-rule="evenodd" d="M45.9199 18.1718H25.1522L32.291 5.97073C35.4044 6.83432 38.1623 8.33739 40.5644 10.4799C42.9666 12.6225 44.7517 15.1864 45.9199 18.1718ZM29.5653 5.45154L19.1814 23.3637L12.1722 11.1627C14.076 9.34549 16.261 7.89608 18.7271 6.81442C21.1932 5.73276 23.8541 5.19194 26.7097 5.19194C27.1856 5.19194 27.6616 5.21357 28.1375 5.25684C28.6134 5.3001 29.0893 5.365 29.5653 5.45154ZM20.7389 31.1517H6.59093C6.37633 30.2846 6.21452 29.4296 6.10549 28.5869C5.99645 27.744 5.94194 26.8683 5.94194 25.9596C5.94194 23.5385 6.33133 21.2567 7.11012 19.1141C7.88891 16.9716 8.97057 15.0134 10.3551 13.2395L20.7389 31.1517ZM28.1375 33.7476L21.1284 45.9487C18.0149 45.085 15.2571 43.582 12.855 41.4394C10.4529 39.2969 8.66771 36.733 7.49952 33.7476H28.1375ZM34.6923 45.1049C32.2261 46.1866 29.5653 46.7275 26.7097 46.7275C26.1888 46.7275 25.7016 46.7058 25.2481 46.6625C24.7947 46.6193 24.3301 46.5544 23.8541 46.4678L34.238 28.5556L41.2471 40.7567C39.3434 42.5739 37.1585 44.0233 34.6923 45.1049ZM46.3092 32.8053C45.5304 34.9478 44.4488 36.906 43.0643 38.6799L32.6804 20.7677H46.8285C47.0431 21.6348 47.2048 22.4897 47.3139 23.3325C47.4229 24.1754 47.4775 25.0511 47.4775 25.9596C47.4775 28.3809 47.088 30.6627 46.3092 32.8053ZM16.6503 49.8738C19.8088 51.2375 23.1618 51.9194 26.7097 51.9194C30.299 51.9211 33.6625 51.2401 36.8002 49.8764C39.9379 48.5126 42.6853 46.6522 45.0424 44.295C47.3996 41.9362 49.26 39.1775 50.6237 36.0191C51.9875 32.8606 52.6694 29.5076 52.6694 25.9596C52.6677 22.3704 51.9857 19.0068 50.6237 15.8692C49.2618 12.7315 47.4013 9.98409 45.0424 7.62696C42.687 5.26982 39.9405 3.40937 36.8028 2.04563C33.6652 0.681875 30.3008 0 26.7097 0C23.1584 0.00173064 19.8044 0.683605 16.6477 2.04563C13.491 3.40764 10.7341 5.26809 8.37696 7.62696C6.01982 9.98236 4.15938 12.7289 2.79562 15.8666C1.43188 19.0042 0.750003 22.3686 0.750003 25.9596C0.748272 29.5076 1.42928 32.8606 2.79303 36.0191C4.15677 39.1775 6.01722 41.9353 8.37437 44.2924C10.7332 46.6496 13.4918 48.51 16.6503 49.8738ZM31.3072 24.3713L32.3978 25.3707C32.4422 25.4113 32.4776 25.4605 32.5019 25.5153C32.5261 25.5701 32.5385 25.6293 32.5385 25.6891V29.4029C32.5385 29.518 32.4921 29.6283 32.4097 29.7097C32.3272 29.791 32.2154 29.8367 32.0987 29.8367H30.2519C30.076 29.8367 29.9002 29.5764 29.9002 29.4029V28.9692H23.744V29.4897C23.744 29.6632 23.4801 29.8367 23.3043 29.8367H21.5454C21.4288 29.8367 21.3169 29.791 21.2344 29.7097C21.152 29.6283 21.1056 29.518 21.1056 29.4029V25.6891C21.1056 25.6293 21.1181 25.5701 21.1423 25.5153C21.1665 25.4605 21.2019 25.4113 21.2463 25.3707L22.3369 24.3713L23.3043 22.4627C23.3873 22.3294 23.5038 22.2195 23.6425 22.1436C23.781 22.0676 23.9372 22.0281 24.0958 22.0289H29.5483C29.7069 22.0281 29.8631 22.0676 30.0017 22.1436C30.1403 22.2195 30.2568 22.3294 30.3398 22.4627L31.3072 24.3713ZM29.4604 22.8965H24.1837L23.3043 24.6315H30.3398L29.4604 22.8965ZM24.1837 27.2341C24.3596 27.2341 24.6235 27.0606 24.6235 26.8871V26.2798C24.6235 26.1064 24.4476 25.846 24.2716 25.846L22.5128 25.4991C22.249 25.4124 22.0731 25.5858 21.9851 25.846V26.8004C21.9851 26.9739 22.161 27.2341 22.3369 27.2341H24.1837ZM31.3072 27.2341C31.4832 27.2341 31.659 26.9739 31.659 26.8004V25.846C31.5711 25.5858 31.3952 25.4124 31.1313 25.4991L29.3725 25.846C29.1966 25.846 29.0206 26.1064 29.0206 26.2798V26.8871C29.0206 27.0606 29.2845 27.2341 29.4604 27.2341H31.3072Z" fill="#4256D0"/>
</svg>
