<svg width="16" height="17" viewBox="0 0 16 17" fill="none" xmlns="http://www.w3.org/2000/svg">
<path d="M8.20033 8.64634C8.55604 8.33843 8.84136 7.9576 9.03691 7.52969C9.23246 7.10178 9.33366 6.63681 9.33366 6.16634C9.33366 5.28229 8.98247 4.43444 8.35735 3.80932C7.73223 3.1842 6.88438 2.83301 6.00033 2.83301C5.11627 2.83301 4.26842 3.1842 3.6433 3.80932C3.01818 4.43444 2.66699 5.28229 2.66699 6.16634C2.66699 6.63681 2.76819 7.10178 2.96374 7.52969C3.15929 7.9576 3.44461 8.33843 3.80033 8.64634C2.86709 9.06893 2.0753 9.75136 1.51965 10.612C0.963989 11.4727 0.667973 12.4752 0.666992 13.4997C0.666992 13.6765 0.73723 13.8461 0.862254 13.9711C0.987279 14.0961 1.15685 14.1663 1.33366 14.1663C1.51047 14.1663 1.68004 14.0961 1.80506 13.9711C1.93009 13.8461 2.00033 13.6765 2.00033 13.4997C2.00033 12.4388 2.42175 11.4214 3.1719 10.6712C3.92204 9.9211 4.93946 9.49967 6.00033 9.49967C7.06119 9.49967 8.07861 9.9211 8.82875 10.6712C9.5789 11.4214 10.0003 12.4388 10.0003 13.4997C10.0003 13.6765 10.0706 13.8461 10.1956 13.9711C10.3206 14.0961 10.4902 14.1663 10.667 14.1663C10.8438 14.1663 11.0134 14.0961 11.1384 13.9711C11.2634 13.8461 11.3337 13.6765 11.3337 13.4997C11.3327 12.4752 11.0367 11.4727 10.481 10.612C9.92535 9.75136 9.13356 9.06893 8.20033 8.64634ZM6.00033 8.16634C5.60476 8.16634 5.21808 8.04904 4.88918 7.82928C4.56029 7.60952 4.30394 7.29716 4.15257 6.93171C4.00119 6.56626 3.96158 6.16412 4.03875 5.77616C4.11593 5.3882 4.30641 5.03183 4.58611 4.75213C4.86582 4.47242 5.22218 4.28194 5.61014 4.20477C5.99811 4.1276 6.40024 4.16721 6.76569 4.31858C7.13114 4.46996 7.4435 4.7263 7.66326 5.0552C7.88303 5.3841 8.00033 5.77078 8.00033 6.16634C8.00033 6.69677 7.78961 7.20548 7.41454 7.58055C7.03947 7.95563 6.53076 8.16634 6.00033 8.16634ZM12.4937 8.37967C12.9203 7.89923 13.199 7.30571 13.2962 6.67057C13.3934 6.03542 13.3049 5.38572 13.0415 4.79967C12.7781 4.21362 12.3509 3.7162 11.8113 3.36729C11.2718 3.01837 10.6429 2.83284 10.0003 2.83301C9.82351 2.83301 9.65394 2.90325 9.52892 3.02827C9.4039 3.15329 9.33366 3.32286 9.33366 3.49967C9.33366 3.67649 9.4039 3.84605 9.52892 3.97108C9.65394 4.0961 9.82351 4.16634 10.0003 4.16634C10.5308 4.16634 11.0395 4.37705 11.4145 4.75213C11.7896 5.1272 12.0003 5.63591 12.0003 6.16634C11.9994 6.5165 11.9065 6.86028 11.731 7.16329C11.5555 7.4663 11.3036 7.71793 11.0003 7.89301C10.9015 7.95002 10.8189 8.03145 10.7606 8.1295C10.7022 8.22755 10.67 8.33894 10.667 8.45301C10.6642 8.56618 10.6903 8.6782 10.7428 8.77851C10.7953 8.87882 10.8724 8.96411 10.967 9.02634L11.227 9.19967L11.3137 9.24634C12.1173 9.62749 12.7952 10.2303 13.2676 10.9839C13.7401 11.7374 13.9874 12.6103 13.9803 13.4997C13.9803 13.6765 14.0506 13.8461 14.1756 13.9711C14.3006 14.0961 14.4702 14.1663 14.647 14.1663C14.8238 14.1663 14.9934 14.0961 15.1184 13.9711C15.2434 13.8461 15.3137 13.6765 15.3137 13.4997C15.3191 12.4766 15.0629 11.4692 14.5693 10.573C14.0757 9.67692 13.3612 8.92188 12.4937 8.37967Z" fill="white"/>
</svg>
