<svg width="16" height="17" viewBox="0 0 16 17" fill="none" xmlns="http://www.w3.org/2000/svg">
<path d="M14 8.5V3.5C14 2.94772 13.5523 2.5 13 2.5H3C2.44772 2.5 2 2.94772 2 3.5V13.5C2 14.0523 2.44772 14.5 3 14.5H8" stroke="white" stroke-width="1.32075" stroke-linecap="round" stroke-linejoin="round"/>
<path d="M10.667 13.1665C11.7716 13.1665 12.667 12.2711 12.667 11.1665C12.667 10.0619 11.7716 9.1665 10.667 9.1665C9.56242 9.1665 8.66699 10.0619 8.66699 11.1665C8.66699 12.2711 9.56242 13.1665 10.667 13.1665Z" stroke="white" stroke-width="1.32075"/>
<path d="M12.3335 12.5L14.0002 13.8333" stroke="white" stroke-width="1.32075" stroke-linecap="round" stroke-linejoin="round"/>
<path d="M4.66699 5.8335H11.3337" stroke="white" stroke-width="1.32075" stroke-linecap="round" stroke-linejoin="round"/>
<path d="M4.66699 8.5H7.33366" stroke="white" stroke-width="1.32075" stroke-linecap="round" stroke-linejoin="round"/>
</svg>
