<svg width="16" height="17" viewBox="0 0 16 17" fill="none" xmlns="http://www.w3.org/2000/svg">
<path d="M10.5992 9.31933L10.5963 9.31811C10.5541 9.30029 10.5134 9.27962 10.4708 9.26269C10.947 8.88949 11.3321 8.41292 11.597 7.869C11.862 7.32509 11.9999 6.72806 12.0002 6.12305C11.9986 5.98247 11.9887 5.84211 11.9704 5.70272C11.9806 5.67622 11.9891 5.64906 11.9956 5.62142L12.1831 4.02311C12.2415 3.51812 12.1057 3.00981 11.8033 2.60117C11.5009 2.19253 11.0545 1.91409 10.5545 1.82227L10.0279 1.72656C8.68729 1.48177 7.31345 1.48177 5.97286 1.72656L5.44553 1.82227C4.94559 1.91416 4.49926 2.19263 4.19694 2.60126C3.89461 3.0099 3.75888 3.51816 3.81725 4.02311L4.00475 5.62142C4.01131 5.64907 4.01974 5.67624 4.02997 5.70275C4.01168 5.84213 4.00173 5.98248 4.00019 6.12305C4.00052 6.72806 4.13837 7.32508 4.40333 7.86899C4.66828 8.4129 5.05341 8.88946 5.52961 9.26266C5.48694 9.27959 5.44627 9.30026 5.40403 9.31808L5.40118 9.31933C4.30972 9.77804 3.36094 10.5206 2.65338 11.4698C1.94581 12.4191 1.50526 13.5404 1.37747 14.7174C1.3583 14.8932 1.40974 15.0694 1.52048 15.2073C1.63122 15.3451 1.79218 15.4333 1.96796 15.4525C2.14373 15.4716 2.31992 15.4202 2.45777 15.3095C2.59561 15.1987 2.68382 15.0378 2.70299 14.862C2.79679 13.9968 3.10226 13.168 3.5924 12.4488C4.08254 11.7297 4.74227 11.1423 5.51329 10.7387L7.52885 12.7542C7.59074 12.8162 7.66422 12.8653 7.7451 12.8988C7.82597 12.9323 7.91266 12.9495 8.0002 12.9495C8.08775 12.9495 8.17444 12.9323 8.25531 12.8988C8.33619 12.8653 8.40967 12.8162 8.47156 12.7542L10.4871 10.7387C11.2581 11.1423 11.9178 11.7297 12.408 12.4488C12.8981 13.168 13.2036 13.9968 13.2974 14.862C13.3152 15.0252 13.3925 15.176 13.5146 15.2857C13.6367 15.3954 13.795 15.4562 13.9592 15.4564C13.9836 15.4564 14.0081 15.4551 14.0324 15.4525C14.2082 15.4333 14.3691 15.3451 14.4799 15.2073C14.5906 15.0694 14.6421 14.8932 14.6229 14.7175C14.4951 13.5404 14.0546 12.4191 13.347 11.4698C12.6394 10.5206 11.6907 9.77804 10.5992 9.31933ZM5.14146 3.86751C5.12204 3.69924 5.16729 3.52988 5.26805 3.39371C5.3688 3.25754 5.51753 3.16475 5.68413 3.13411L6.21114 3.03841C7.39406 2.82227 8.60635 2.82227 9.78926 3.03841L10.3159 3.13411C10.4826 3.16468 10.6314 3.25744 10.7322 3.39362C10.833 3.52979 10.8783 3.69919 10.8589 3.86751L10.7404 4.87695H5.25995L5.14146 3.86751ZM8.00018 11.3402L6.9 10.24C7.62517 10.0841 8.3752 10.0841 9.10036 10.24L8.00018 11.3402ZM8.00018 8.78971C7.30828 8.7889 6.64371 8.51953 6.14651 8.03836C5.64932 7.55718 5.35832 6.90179 5.33485 6.21029H10.6656C10.6421 6.9018 10.3511 7.5572 9.8539 8.03838C9.35669 8.51955 8.6921 8.78892 8.00018 8.78971Z" fill="white"/>
</svg>
